# xmcd
#
# Track frame offsets:
#	150
#	14763
#	26469
#	38927
#	50445
#	62143
#	74481
#	87897
#	104740
#	117586
#	133122
#	141088
#	151038
#	162634
#	176058
#	190234
#	200321
#	213041
#	222335
#	232565
#	247646
#	260137
#	272583
#	281916
#	305471
#
# Disc length: 4246 seconds
#
# Revision: 2
# Processed by: cddbd v1.5.2PL0 Copyright (c) Steve Scherf et al.
# Submitted via: EasyCDDAExtractor 16.0.6.1
#
DISCID=74109419
DTITLE=Varios -  C-107 50 Country Golden Hits Vol.1 CD 2 
DYEAR=1999
DGENRE=Country
TTITLE0=The Bellamy Brothers - Dancing Cowboys
TTITLE1=Frankie Laine - Mule Train
TTITLE2=Lynn Anderson - Stand By Your Man
TTITLE3=Johnny Cash - Big River
TTITLE4=Kenny Rogers - Me And Bobby Mc Gee
TTITLE5=Frankie Laine - High Non (Do Not Forsake Me)
TTITLE6=The Bellamy Brothers - Do You Love As Good As You Look
TTITLE7=Carmen and Thompson - Indian Queens
TTITLE8=Lynn Anderson - Top Of The World
TTITLE9=Kenny Rogers - For The Good Times
TTITLE10=Johnny Cash - Hey Good Lookin'
TTITLE11=Willie Nelson - Broken Promises
TTITLE12=George Jones - Tarnished Angel
TTITLE13=Carl Belew - Welcome Back To My World
TTITLE14=Don Fardon - Champion Of The Rodeo
TTITLE15=Waylon Jennings - When Sin Stops (Love Begins)
TTITLE16=Oak Ridge Boys - You'll Never walk Alone
TTITLE17=Marylin Monroe - One Silver Dollar
TTITLE18=Don Williams - Take My Hand For A While
TTITLE19=Willie Nelson - Face Of A Fighter
TTITLE20=Charlie Rich - Behind Closed Doors
TTITLE21=Ace Cannon - Yesterday
TTITLE22=Johnny Paycheck - Mr. Lovemaker
TTITLE23=Phil Carmen - Call Me The Breeze
TTITLE24=Mickey Gilley - C.C. Rider
EXTD=
EXTT0=
EXTT1=
EXTT2=
EXTT3=
EXTT4=
EXTT5=
EXTT6=
EXTT7=
EXTT8=
EXTT9=
EXTT10=
EXTT11=
EXTT12=
EXTT13=
EXTT14=
EXTT15=
EXTT16=
EXTT17=
EXTT18=
EXTT19=
EXTT20=
EXTT21=
EXTT22=
EXTT23=
EXTT24=
PLAYORDER=
